<svg width="170" height="62" viewBox="0 0 170 62" fill="none" xmlns="http://www.w3.org/2000/svg">
<rect x="0.065918" width="169" height="62" rx="4" fill="#FF5A05"/>
<path d="M31.6639 38H40.4494V36.1108H33.8585V23.4545H31.6639V38ZM47.4842 38.2202C49.8635 38.2202 51.5467 37.0483 52.0297 35.2727L50.0198 34.9105C49.6362 35.9403 48.7129 36.4659 47.5055 36.4659C45.6874 36.4659 44.4658 35.2869 44.409 33.1847H52.1646V32.4318C52.1646 28.4901 49.8067 26.9489 47.3351 26.9489C44.2953 26.9489 42.2925 29.2642 42.2925 32.6165C42.2925 36.0043 44.2669 38.2202 47.4842 38.2202ZM44.4161 31.5938C44.5013 30.0455 45.6234 28.7031 47.3493 28.7031C48.997 28.7031 50.0766 29.9247 50.0837 31.5938H44.4161ZM57.6955 38.2415C59.4995 38.2415 60.5151 37.3253 60.92 36.5085H61.0052V38H63.0791V30.7557C63.0791 27.581 60.5791 26.9489 58.8461 26.9489C56.8717 26.9489 55.0535 27.7443 54.3433 29.733L56.339 30.1875C56.6515 29.4134 57.447 28.6676 58.8745 28.6676C60.2453 28.6676 60.9484 29.3849 60.9484 30.6207V30.6705C60.9484 31.4446 60.1529 31.4304 58.1927 31.6577C56.1259 31.8991 54.0095 32.4389 54.0095 34.9176C54.0095 37.0625 55.6217 38.2415 57.6955 38.2415ZM58.1572 36.5369C56.9569 36.5369 56.0904 35.9972 56.0904 34.946C56.0904 33.8097 57.0989 33.4048 58.3276 33.2415C59.0166 33.1491 60.6501 32.9645 60.9555 32.6591V34.0653C60.9555 35.358 59.9256 36.5369 58.1572 36.5369ZM65.9075 38H68.0311V31.3381C68.0311 29.9105 69.132 28.8807 70.6377 28.8807C71.078 28.8807 71.5752 28.9588 71.7456 29.0085V26.9773C71.5325 26.9489 71.1135 26.9276 70.8436 26.9276C69.5652 26.9276 68.4715 27.652 68.0737 28.8239H67.9601V27.0909H65.9075V38ZM75.7069 31.5227C75.7069 29.7827 76.7722 28.7884 78.2495 28.7884C79.6913 28.7884 80.5649 29.733 80.5649 31.3168V38H82.6884V31.0611C82.6884 28.3622 81.2041 26.9489 78.9739 26.9489C77.3333 26.9489 76.2609 27.7088 75.7566 28.8665H75.6217V27.0909H73.5833V38H75.7069V31.5227ZM90.9999 23.4545V38H93.0879V27.4673H93.2229L97.5127 37.9787H99.2456L103.535 27.4744H103.67V38H105.758V23.4545H103.095L98.4644 34.7614H98.2939L93.6632 23.4545H90.9999ZM113.374 38.2202C116.449 38.2202 118.459 35.9688 118.459 32.5952C118.459 29.2003 116.449 26.9489 113.374 26.9489C110.299 26.9489 108.289 29.2003 108.289 32.5952C108.289 35.9688 110.299 38.2202 113.374 38.2202ZM113.381 36.4375C111.371 36.4375 110.433 34.6832 110.433 32.5881C110.433 30.5 111.371 28.7244 113.381 28.7244C115.377 28.7244 116.314 30.5 116.314 32.5881C116.314 34.6832 115.377 36.4375 113.381 36.4375ZM120.829 38H122.953V31.3381C122.953 29.9105 124.054 28.8807 125.56 28.8807C126 28.8807 126.497 28.9588 126.667 29.0085V26.9773C126.454 26.9489 126.035 26.9276 125.765 26.9276C124.487 26.9276 123.393 27.652 122.996 28.8239H122.882V27.0909H120.829V38ZM132.816 38.2202C135.196 38.2202 136.879 37.0483 137.362 35.2727L135.352 34.9105C134.968 35.9403 134.045 36.4659 132.838 36.4659C131.019 36.4659 129.798 35.2869 129.741 33.1847H137.497V32.4318C137.497 28.4901 135.139 26.9489 132.667 26.9489C129.627 26.9489 127.625 29.2642 127.625 32.6165C127.625 36.0043 129.599 38.2202 132.816 38.2202ZM129.748 31.5938C129.833 30.0455 130.955 28.7031 132.681 28.7031C134.329 28.7031 135.409 29.9247 135.416 31.5938H129.748Z" fill="white"/>
</svg>
