<svg width="1185" height="421" viewBox="0 0 1185 421" fill="none" xmlns="http://www.w3.org/2000/svg">
<g filter="url(#filter0_d_55_274)">
<path d="M15.0659 10H276.066V271L145.566 381L15.0659 271V10Z" fill="white"/>
</g>
<path opacity="0.7" d="M77.5006 213H80.1355V206.821H86.8756V213H89.5176V198.455H86.8756V204.612H80.1355V198.455H77.5006V213ZM95.409 213.22C97.1206 213.22 98.1433 212.418 98.6121 211.501H98.6973V213H101.169V205.699C101.169 202.815 98.818 201.949 96.7371 201.949C94.443 201.949 92.6817 202.972 92.1135 204.96L94.5141 205.301C94.7698 204.555 95.4942 203.916 96.7513 203.916C97.9445 203.916 98.5979 204.527 98.5979 205.599V205.642C98.5979 206.381 97.8237 206.416 95.899 206.622C93.7825 206.849 91.7584 207.482 91.7584 209.939C91.7584 212.084 93.328 213.22 95.409 213.22ZM96.0766 211.331C95.0041 211.331 94.2371 210.841 94.2371 209.896C94.2371 208.909 95.0965 208.497 96.247 208.334C96.9217 208.241 98.2712 208.071 98.605 207.801V209.087C98.605 210.301 97.6249 211.331 96.0766 211.331ZM103.754 217.091H106.325V211.281H106.432C106.837 212.077 107.682 213.192 109.557 213.192C112.128 213.192 114.052 211.153 114.052 207.56C114.052 203.923 112.071 201.949 109.55 201.949C107.625 201.949 106.822 203.107 106.432 203.895H106.283V202.091H103.754V217.091ZM106.275 207.545C106.275 205.429 107.185 204.058 108.839 204.058C110.551 204.058 111.432 205.514 111.432 207.545C111.432 209.591 110.537 211.082 108.839 211.082C107.199 211.082 106.275 209.662 106.275 207.545ZM116.254 217.091H118.825V211.281H118.932C119.337 212.077 120.182 213.192 122.057 213.192C124.628 213.192 126.552 211.153 126.552 207.56C126.552 203.923 124.571 201.949 122.05 201.949C120.125 201.949 119.322 203.107 118.932 203.895H118.783V202.091H116.254V217.091ZM118.775 207.545C118.775 205.429 119.685 204.058 121.339 204.058C123.051 204.058 123.932 205.514 123.932 207.545C123.932 209.591 123.037 211.082 121.339 211.082C119.699 211.082 118.775 209.662 118.775 207.545ZM129.981 217.091C131.984 217.091 133.142 216.061 133.759 214.321L138.142 202.105L135.393 202.091L132.872 210.33H132.758L130.244 202.091H127.517L131.473 213.227L131.252 213.817C130.777 215.06 130.024 215.145 128.902 214.818L128.305 216.821C128.653 216.963 129.278 217.091 129.981 217.091ZM162.412 203.362C161.964 200.131 159.479 198.256 156.254 198.256C152.454 198.256 149.592 201.026 149.592 205.727C149.592 210.422 152.419 213.199 156.254 213.199C159.713 213.199 162.007 210.962 162.412 208.185L159.756 208.17C159.422 209.875 158.03 210.834 156.29 210.834C153.932 210.834 152.241 209.065 152.241 205.727C152.241 202.446 153.917 200.621 156.297 200.621C158.065 200.621 159.45 201.622 159.756 203.362H162.412ZM167.282 198.455H164.711V213H167.282V198.455ZM169.926 213H172.497V202.091H169.926V213ZM171.219 200.543C172.035 200.543 172.703 199.918 172.703 199.151C172.703 198.376 172.035 197.751 171.219 197.751C170.395 197.751 169.727 198.376 169.727 199.151C169.727 199.918 170.395 200.543 171.219 200.543ZM179.97 213.213C182.513 213.213 184.26 211.97 184.715 210.074L182.314 209.804C181.966 210.727 181.114 211.21 180.006 211.21C178.344 211.21 177.243 210.116 177.222 208.249H184.821V207.46C184.821 203.632 182.52 201.949 179.835 201.949C176.71 201.949 174.672 204.243 174.672 207.609C174.672 211.033 176.682 213.213 179.97 213.213ZM177.229 206.516C177.307 205.124 178.337 203.952 179.871 203.952C181.348 203.952 182.343 205.031 182.357 206.516H177.229ZM189.567 206.608C189.567 205.031 190.519 204.122 191.876 204.122C193.204 204.122 193.999 204.996 193.999 206.452V213H196.57V206.054C196.577 203.44 195.086 201.949 192.834 201.949C191.201 201.949 190.079 202.73 189.582 203.945H189.454V202.091H186.996V213H189.567V206.608ZM204.631 202.091H202.479V199.477H199.908V202.091H198.36V204.08H199.908V210.145C199.894 212.197 201.386 213.206 203.317 213.149C204.049 213.128 204.553 212.986 204.83 212.893L204.397 210.884C204.255 210.919 203.964 210.983 203.644 210.983C202.998 210.983 202.479 210.756 202.479 209.719V204.08H204.631V202.091ZM215.247 204.974C214.892 203.128 213.415 201.949 210.858 201.949C208.23 201.949 206.441 203.241 206.448 205.259C206.441 206.849 207.421 207.901 209.516 208.334L211.377 208.724C212.378 208.945 212.847 209.349 212.847 209.967C212.847 210.713 212.037 211.274 210.816 211.274C209.637 211.274 208.87 210.763 208.649 209.783L206.142 210.024C206.462 212.027 208.145 213.213 210.823 213.213C213.55 213.213 215.475 211.8 215.482 209.733C215.475 208.178 214.473 207.226 212.414 206.778L210.553 206.381C209.445 206.132 209.004 205.749 209.012 205.116C209.004 204.378 209.821 203.866 210.894 203.866C212.08 203.866 212.705 204.513 212.904 205.23L215.247 204.974Z" fill="#05000B"/>
<path d="M108.068 159.547C116.975 159.547 123.029 153.746 123.01 145.66C123.029 138.004 117.678 132.496 110.471 132.496C106.955 132.496 103.928 133.961 102.521 135.934H102.287L103.322 125.914H120.803V119H96.3496L94.4551 140.094L101.975 141.441C103.205 139.781 105.588 138.746 107.951 138.746C111.975 138.766 114.865 141.676 114.865 145.875C114.865 150.035 112.033 152.906 108.068 152.906C104.709 152.906 101.994 150.797 101.799 147.691H93.5957C93.752 154.605 99.7871 159.547 108.068 159.547ZM144.592 159.879C154.65 159.879 160.725 152.223 160.744 139.039C160.764 125.953 154.611 118.453 144.592 118.453C134.553 118.453 128.459 125.934 128.439 139.039C128.4 152.184 134.514 159.859 144.592 159.879ZM144.592 152.867C140.002 152.867 137.033 148.258 137.053 139.039C137.072 129.957 140.021 125.387 144.592 125.387C149.143 125.387 152.111 129.957 152.111 139.039C152.131 148.258 149.162 152.867 144.592 152.867ZM178.728 152.906H185.72V142.574H196.052V135.582H185.72V125.25H178.728V135.582H168.396V142.574H178.728V152.906Z" fill="#1F37FF"/>
<g filter="url(#filter1_d_55_274)">
<path d="M306.066 10H567.066V271L436.566 381L306.066 271V10Z" fill="white"/>
</g>
<path opacity="0.7" d="M343.503 213.5H346.137V208.585H348.922C352.281 208.585 354.085 206.568 354.085 203.77C354.085 200.993 352.302 198.955 348.957 198.955H343.503V213.5ZM346.137 206.419V201.156H348.552C350.527 201.156 351.4 202.222 351.4 203.77C351.4 205.318 350.527 206.419 348.566 206.419H346.137ZM356.26 213.5H358.831V207.087C358.831 205.702 359.875 204.722 361.288 204.722C361.722 204.722 362.261 204.8 362.482 204.871V202.506C362.247 202.463 361.842 202.435 361.558 202.435C360.308 202.435 359.264 203.145 358.867 204.409H358.753V202.591H356.26V213.5ZM368.499 213.713C371.695 213.713 373.726 211.462 373.726 208.088C373.726 204.707 371.695 202.449 368.499 202.449C365.303 202.449 363.272 204.707 363.272 208.088C363.272 211.462 365.303 213.713 368.499 213.713ZM368.513 211.653C366.745 211.653 365.878 210.077 365.878 208.081C365.878 206.085 366.745 204.487 368.513 204.487C370.253 204.487 371.12 206.085 371.12 208.081C371.12 210.077 370.253 211.653 368.513 211.653ZM375.908 202.591V214.089C375.908 215.006 375.518 215.496 374.531 215.496C374.403 215.496 374.303 215.489 374.161 215.482V217.577C374.346 217.591 374.502 217.591 374.687 217.591C377.095 217.591 378.479 216.483 378.479 214.125V202.591H375.908ZM377.187 201.043C378.004 201.043 378.671 200.418 378.671 199.651C378.671 198.876 378.004 198.251 377.187 198.251C376.363 198.251 375.695 198.876 375.695 199.651C375.695 200.418 376.363 201.043 377.187 201.043ZM385.953 213.713C388.495 213.713 390.243 212.47 390.697 210.574L388.297 210.304C387.949 211.227 387.096 211.71 385.988 211.71C384.326 211.71 383.226 210.616 383.204 208.749H390.804V207.96C390.804 204.132 388.503 202.449 385.818 202.449C382.693 202.449 380.655 204.743 380.655 208.109C380.655 211.533 382.664 213.713 385.953 213.713ZM383.211 207.016C383.289 205.624 384.319 204.452 385.853 204.452C387.331 204.452 388.325 205.531 388.339 207.016H383.211ZM397.737 213.713C400.479 213.713 402.226 212.087 402.411 209.771H399.953C399.733 210.943 398.888 211.618 397.759 211.618C396.153 211.618 395.117 210.276 395.117 208.045C395.117 205.844 396.175 204.523 397.759 204.523C398.994 204.523 399.754 205.318 399.953 206.369H402.411C402.233 204.004 400.386 202.449 397.723 202.449C394.527 202.449 392.51 204.757 392.51 208.088C392.51 211.391 394.477 213.713 397.737 213.713ZM409.969 202.591H407.817V199.977H405.246V202.591H403.698V204.58H405.246V210.645C405.232 212.697 406.723 213.706 408.655 213.649C409.387 213.628 409.891 213.486 410.168 213.393L409.735 211.384C409.593 211.419 409.302 211.483 408.982 211.483C408.336 211.483 407.817 211.256 407.817 210.219V204.58H409.969V202.591ZM420.585 205.474C420.23 203.628 418.753 202.449 416.196 202.449C413.568 202.449 411.778 203.741 411.786 205.759C411.778 207.349 412.759 208.401 414.854 208.834L416.715 209.224C417.716 209.445 418.185 209.849 418.185 210.467C418.185 211.213 417.375 211.774 416.153 211.774C414.974 211.774 414.207 211.263 413.987 210.283L411.48 210.524C411.8 212.527 413.483 213.713 416.161 213.713C418.888 213.713 420.813 212.3 420.82 210.233C420.813 208.678 419.811 207.726 417.751 207.278L415.891 206.881C414.783 206.632 414.342 206.249 414.349 205.616C414.342 204.878 415.159 204.366 416.232 204.366C417.418 204.366 418.043 205.013 418.242 205.73L420.585 205.474ZM440.465 203.862C440.017 200.631 437.531 198.756 434.307 198.756C430.507 198.756 427.645 201.526 427.645 206.227C427.645 210.922 430.472 213.699 434.307 213.699C437.766 213.699 440.06 211.462 440.465 208.685L437.808 208.67C437.474 210.375 436.082 211.334 434.342 211.334C431.984 211.334 430.294 209.565 430.294 206.227C430.294 202.946 431.97 201.121 434.349 201.121C436.118 201.121 437.503 202.122 437.808 203.862H440.465ZM447.522 213.713C450.718 213.713 452.75 211.462 452.75 208.088C452.75 204.707 450.718 202.449 447.522 202.449C444.326 202.449 442.295 204.707 442.295 208.088C442.295 211.462 444.326 213.713 447.522 213.713ZM447.537 211.653C445.768 211.653 444.902 210.077 444.902 208.081C444.902 206.085 445.768 204.487 447.537 204.487C449.277 204.487 450.143 206.085 450.143 208.081C450.143 210.077 449.277 211.653 447.537 211.653ZM454.932 213.5H457.503V206.866C457.503 205.524 458.398 204.615 459.506 204.615C460.592 204.615 461.338 205.347 461.338 206.469V213.5H463.859V206.696C463.859 205.467 464.591 204.615 465.834 204.615C466.871 204.615 467.695 205.226 467.695 206.575V213.5H470.273V206.178C470.273 203.741 468.867 202.449 466.864 202.449C465.28 202.449 464.072 203.23 463.59 204.445H463.476C463.057 203.209 461.999 202.449 460.528 202.449C459.065 202.449 457.972 203.202 457.517 204.445H457.389V202.591H454.932V213.5ZM472.881 217.591H475.452V211.781H475.559C475.963 212.577 476.809 213.692 478.684 213.692C481.255 213.692 483.179 211.653 483.179 208.06C483.179 204.423 481.198 202.449 478.677 202.449C476.752 202.449 475.949 203.607 475.559 204.395H475.409V202.591H472.881V217.591ZM475.402 208.045C475.402 205.929 476.311 204.558 477.966 204.558C479.678 204.558 480.559 206.014 480.559 208.045C480.559 210.091 479.664 211.582 477.966 211.582C476.326 211.582 475.402 210.162 475.402 208.045ZM487.952 198.955H485.381V213.5H487.952V198.955ZM495.425 213.713C497.968 213.713 499.715 212.47 500.17 210.574L497.769 210.304C497.421 211.227 496.569 211.71 495.461 211.71C493.799 211.71 492.698 210.616 492.677 208.749H500.276V207.96C500.276 204.132 497.975 202.449 495.291 202.449C492.166 202.449 490.127 204.743 490.127 208.109C490.127 211.533 492.137 213.713 495.425 213.713ZM492.684 207.016C492.762 205.624 493.792 204.452 495.326 204.452C496.803 204.452 497.798 205.531 497.812 207.016H492.684ZM507.899 202.591H505.747V199.977H503.176V202.591H501.628V204.58H503.176V210.645C503.162 212.697 504.653 213.706 506.585 213.649C507.316 213.628 507.821 213.486 508.098 213.393L507.664 211.384C507.522 211.419 507.231 211.483 506.912 211.483C506.265 211.483 505.747 211.256 505.747 210.219V204.58H507.899V202.591ZM514.761 213.713C517.304 213.713 519.051 212.47 519.506 210.574L517.105 210.304C516.757 211.227 515.905 211.71 514.797 211.71C513.135 211.71 512.034 210.616 512.013 208.749H519.612V207.96C519.612 204.132 517.311 202.449 514.626 202.449C511.501 202.449 509.463 204.743 509.463 208.109C509.463 211.533 511.473 213.713 514.761 213.713ZM512.02 207.016C512.098 205.624 513.128 204.452 514.662 204.452C516.139 204.452 517.134 205.531 517.148 207.016H512.02ZM525.836 213.692C527.711 213.692 528.556 212.577 528.961 211.781H529.117V213.5H531.645V198.955H529.067V204.395H528.961C528.57 203.607 527.767 202.449 525.843 202.449C523.321 202.449 521.34 204.423 521.34 208.06C521.34 211.653 523.265 213.692 525.836 213.692ZM526.553 211.582C524.856 211.582 523.961 210.091 523.961 208.045C523.961 206.014 524.841 204.558 526.553 204.558C528.208 204.558 529.117 205.929 529.117 208.045C529.117 210.162 528.194 211.582 526.553 211.582Z" fill="#05000B"/>
<path d="M381.917 160.047C390.824 160.047 396.878 154.246 396.859 146.16C396.878 138.504 391.527 132.996 384.32 132.996C380.804 132.996 377.777 134.461 376.371 136.434H376.136L377.171 126.414H394.652V119.5H370.199L368.304 140.594L375.824 141.941C377.054 140.281 379.437 139.246 381.8 139.246C385.824 139.266 388.714 142.176 388.714 146.375C388.714 150.535 385.882 153.406 381.917 153.406C378.558 153.406 375.843 151.297 375.648 148.191H367.445C367.601 155.105 373.636 160.047 381.917 160.047ZM417.367 160.047C426.273 160.047 432.328 154.246 432.308 146.16C432.328 138.504 426.976 132.996 419.769 132.996C416.253 132.996 413.226 134.461 411.82 136.434H411.585L412.621 126.414H430.101V119.5H405.648L403.753 140.594L411.273 141.941C412.503 140.281 414.886 139.246 417.25 139.246C421.273 139.266 424.164 142.176 424.164 146.375C424.164 150.535 421.332 153.406 417.367 153.406C414.007 153.406 411.292 151.297 411.097 148.191H402.894C403.05 155.105 409.085 160.047 417.367 160.047ZM453.89 160.379C463.949 160.379 470.023 152.723 470.042 139.539C470.062 126.453 463.91 118.953 453.89 118.953C443.851 118.953 437.757 126.434 437.738 139.539C437.699 152.684 443.812 160.359 453.89 160.379ZM453.89 153.367C449.3 153.367 446.332 148.758 446.351 139.539C446.371 130.457 449.32 125.887 453.89 125.887C458.441 125.887 461.41 130.457 461.41 139.539C461.429 148.758 458.46 153.367 453.89 153.367ZM488.026 153.406H495.018V143.074H505.35V136.082H495.018V125.75H488.026V136.082H477.694V143.074H488.026V153.406Z" fill="#1F37FF"/>
<g filter="url(#filter2_d_55_274)">
<path d="M597.066 10H858.066V271L727.566 381L597.066 271V10Z" fill="white"/>
</g>
<path opacity="0.7" d="M636.744 213C641.176 213 643.804 210.259 643.804 205.713C643.804 201.182 641.176 198.455 636.843 198.455H631.815V213H636.744ZM634.45 210.72V200.734H636.694C639.649 200.734 641.19 202.382 641.19 205.713C641.19 209.058 639.649 210.72 636.616 210.72H634.45ZM651.023 213.213C653.566 213.213 655.313 211.97 655.767 210.074L653.367 209.804C653.019 210.727 652.167 211.21 651.059 211.21C649.397 211.21 648.296 210.116 648.275 208.249H655.874V207.46C655.874 203.632 653.573 201.949 650.888 201.949C647.763 201.949 645.725 204.243 645.725 207.609C645.725 211.033 647.735 213.213 651.023 213.213ZM648.282 206.516C648.36 205.124 649.39 203.952 650.924 203.952C652.401 203.952 653.395 205.031 653.409 206.516H648.282ZM662.097 213.192C663.972 213.192 664.818 212.077 665.222 211.281H665.379V213H667.907V198.455H665.329V203.895H665.222C664.832 203.107 664.029 201.949 662.104 201.949C659.583 201.949 657.602 203.923 657.602 207.56C657.602 211.153 659.526 213.192 662.097 213.192ZM662.815 211.082C661.117 211.082 660.222 209.591 660.222 207.545C660.222 205.514 661.103 204.058 662.815 204.058C664.47 204.058 665.379 205.429 665.379 207.545C665.379 209.662 664.455 211.082 662.815 211.082ZM670.647 213H673.218V202.091H670.647V213ZM671.939 200.543C672.756 200.543 673.424 199.918 673.424 199.151C673.424 198.376 672.756 197.751 671.939 197.751C671.115 197.751 670.448 198.376 670.448 199.151C670.448 199.918 671.115 200.543 671.939 200.543ZM680.62 213.213C683.362 213.213 685.109 211.587 685.293 209.271H682.836C682.616 210.443 681.771 211.118 680.641 211.118C679.036 211.118 677.999 209.776 677.999 207.545C677.999 205.344 679.058 204.023 680.641 204.023C681.877 204.023 682.637 204.818 682.836 205.869H685.293C685.116 203.504 683.269 201.949 680.606 201.949C677.41 201.949 675.393 204.257 675.393 207.588C675.393 210.891 677.36 213.213 680.62 213.213ZM690.544 213.22C692.255 213.22 693.278 212.418 693.747 211.501H693.832V213H696.304V205.699C696.304 202.815 693.953 201.949 691.872 201.949C689.578 201.949 687.816 202.972 687.248 204.96L689.649 205.301C689.905 204.555 690.629 203.916 691.886 203.916C693.079 203.916 693.733 204.527 693.733 205.599V205.642C693.733 206.381 692.958 206.416 691.034 206.622C688.917 206.849 686.893 207.482 686.893 209.939C686.893 212.084 688.463 213.22 690.544 213.22ZM691.211 211.331C690.139 211.331 689.372 210.841 689.372 209.896C689.372 208.909 690.231 208.497 691.382 208.334C692.057 208.241 693.406 208.071 693.74 207.801V209.087C693.74 210.301 692.76 211.331 691.211 211.331ZM704.336 202.091H702.184V199.477H699.613V202.091H698.065V204.08H699.613V210.145C699.599 212.197 701.091 213.206 703.022 213.149C703.754 213.128 704.258 212.986 704.535 212.893L704.102 210.884C703.96 210.919 703.669 210.983 703.349 210.983C702.703 210.983 702.184 210.756 702.184 209.719V204.08H704.336V202.091ZM711.199 213.213C713.742 213.213 715.489 211.97 715.943 210.074L713.543 209.804C713.195 210.727 712.342 211.21 711.234 211.21C709.572 211.21 708.472 210.116 708.45 208.249H716.05V207.46C716.05 203.632 713.749 201.949 711.064 201.949C707.939 201.949 705.901 204.243 705.901 207.609C705.901 211.033 707.911 213.213 711.199 213.213ZM708.457 206.516C708.536 205.124 709.565 203.952 711.099 203.952C712.577 203.952 713.571 205.031 713.585 206.516H708.457ZM722.273 213.192C724.148 213.192 724.993 212.077 725.398 211.281H725.554V213H728.083V198.455H725.505V203.895H725.398C725.008 203.107 724.205 201.949 722.28 201.949C719.759 201.949 717.777 203.923 717.777 207.56C717.777 211.153 719.702 213.192 722.273 213.192ZM722.99 211.082C721.293 211.082 720.398 209.591 720.398 207.545C720.398 205.514 721.279 204.058 722.99 204.058C724.645 204.058 725.554 205.429 725.554 207.545C725.554 209.662 724.631 211.082 722.99 211.082ZM735.897 198.455V213H738.425V202.986H738.56L742.58 212.957H744.47L748.489 203.007H748.624V213H751.153V198.455H747.928L743.61 208.994H743.44L739.121 198.455H735.897ZM758.738 213.213C761.281 213.213 763.028 211.97 763.482 210.074L761.082 209.804C760.734 210.727 759.881 211.21 758.773 211.21C757.112 211.21 756.011 210.116 755.989 208.249H763.589V207.46C763.589 203.632 761.288 201.949 758.603 201.949C755.478 201.949 753.44 204.243 753.44 207.609C753.44 211.033 755.45 213.213 758.738 213.213ZM755.996 206.516C756.075 205.124 757.104 203.952 758.639 203.952C760.116 203.952 761.11 205.031 761.124 206.516H755.996ZM765.764 213H768.335V206.366C768.335 205.024 769.23 204.115 770.338 204.115C771.424 204.115 772.17 204.847 772.17 205.969V213H774.691V206.196C774.691 204.967 775.423 204.115 776.666 204.115C777.703 204.115 778.527 204.726 778.527 206.075V213H781.105V205.678C781.105 203.241 779.699 201.949 777.696 201.949C776.112 201.949 774.905 202.73 774.422 203.945H774.308C773.889 202.709 772.831 201.949 771.36 201.949C769.897 201.949 768.804 202.702 768.349 203.945H768.221V202.091H765.764V213ZM783.827 213H786.355V211.281H786.504C786.909 212.077 787.754 213.192 789.629 213.192C792.2 213.192 794.125 211.153 794.125 207.56C794.125 203.923 792.144 201.949 789.622 201.949C787.697 201.949 786.895 203.107 786.504 203.895H786.398V198.455H783.827V213ZM786.348 207.545C786.348 205.429 787.257 204.058 788.912 204.058C790.624 204.058 791.504 205.514 791.504 207.545C791.504 209.591 790.609 211.082 788.912 211.082C787.271 211.082 786.348 209.662 786.348 207.545ZM801.14 213.213C803.683 213.213 805.43 211.97 805.885 210.074L803.484 209.804C803.136 210.727 802.284 211.21 801.176 211.21C799.514 211.21 798.413 210.116 798.392 208.249H805.991V207.46C805.991 203.632 803.69 201.949 801.005 201.949C797.88 201.949 795.842 204.243 795.842 207.609C795.842 211.033 797.852 213.213 801.14 213.213ZM798.399 206.516C798.477 205.124 799.507 203.952 801.041 203.952C802.518 203.952 803.512 205.031 803.527 206.516H798.399ZM808.166 213H810.737V206.587C810.737 205.202 811.781 204.222 813.195 204.222C813.628 204.222 814.168 204.3 814.388 204.371V202.006C814.153 201.963 813.749 201.935 813.465 201.935C812.215 201.935 811.17 202.645 810.773 203.909H810.659V202.091H808.166V213ZM824.718 204.974C824.363 203.128 822.886 201.949 820.329 201.949C817.701 201.949 815.911 203.241 815.918 205.259C815.911 206.849 816.891 207.901 818.987 208.334L820.847 208.724C821.849 208.945 822.318 209.349 822.318 209.967C822.318 210.713 821.508 211.274 820.286 211.274C819.107 211.274 818.34 210.763 818.12 209.783L815.613 210.024C815.933 212.027 817.616 213.213 820.293 213.213C823.021 213.213 824.945 211.8 824.952 209.733C824.945 208.178 823.944 207.226 821.884 206.778L820.023 206.381C818.916 206.132 818.475 205.749 818.482 205.116C818.475 204.378 819.292 203.866 820.364 203.866C821.55 203.866 822.175 204.513 822.374 205.23L824.718 204.974Z" fill="#05000B"/>
<path d="M677.329 159H705.844V152.086H689.047V151.812L694.887 146.09C703.11 138.59 705.317 134.84 705.317 130.289C705.317 123.355 699.653 118.453 691.079 118.453C682.68 118.453 676.918 123.473 676.938 131.324H684.965C684.946 127.496 687.368 125.152 691.02 125.152C694.536 125.152 697.153 127.34 697.153 130.855C697.153 134.039 695.2 136.227 691.567 139.723L677.329 152.906V159ZM726.582 159.547C735.488 159.547 741.542 153.746 741.523 145.66C741.542 138.004 736.191 132.496 728.984 132.496C725.468 132.496 722.441 133.961 721.035 135.934H720.8L721.835 125.914H739.316V119H714.863L712.968 140.094L720.488 141.441C721.718 139.781 724.101 138.746 726.464 138.746C730.488 138.766 733.378 141.676 733.378 145.875C733.378 150.035 730.546 152.906 726.582 152.906C723.222 152.906 720.507 150.797 720.312 147.691H712.109C712.265 154.605 718.3 159.547 726.582 159.547ZM763.105 159.879C773.164 159.879 779.238 152.223 779.257 139.039C779.277 125.953 773.125 118.453 763.105 118.453C753.066 118.453 746.972 125.934 746.953 139.039C746.914 152.184 753.027 159.859 763.105 159.879ZM763.105 152.867C758.515 152.867 755.546 148.258 755.566 139.039C755.585 129.957 758.535 125.387 763.105 125.387C767.656 125.387 770.625 129.957 770.625 139.039C770.644 148.258 767.675 152.867 763.105 152.867Z" fill="#1F37FF"/>
<g filter="url(#filter3_d_55_274)">
<path d="M888.066 10H1149.07V271L1018.57 381L888.066 271V10Z" fill="white"/>
</g>
<path opacity="0.7" d="M962.368 213L963.569 209.413H969.038L970.245 213H973.057L967.93 198.455H964.677L959.556 213H962.368ZM964.279 207.297L966.246 201.438H966.36L968.327 207.297H964.279ZM975.744 213H978.428L980.474 205.628H980.623L982.669 213H985.346L988.436 202.091H985.808L983.919 209.719H983.812L981.852 202.091H979.259L977.299 209.761H977.2L975.282 202.091H972.661L975.744 213ZM993.37 213.22C995.082 213.22 996.104 212.418 996.573 211.501H996.658V213H999.13V205.699C999.13 202.815 996.779 201.949 994.698 201.949C992.404 201.949 990.643 202.972 990.074 204.96L992.475 205.301C992.731 204.555 993.455 203.916 994.712 203.916C995.905 203.916 996.559 204.527 996.559 205.599V205.642C996.559 206.381 995.785 206.416 993.86 206.622C991.743 206.849 989.719 207.482 989.719 209.939C989.719 212.084 991.289 213.22 993.37 213.22ZM994.038 211.331C992.965 211.331 992.198 210.841 992.198 209.896C992.198 208.909 993.057 208.497 994.208 208.334C994.883 208.241 996.232 208.071 996.566 207.801V209.087C996.566 210.301 995.586 211.331 994.038 211.331ZM1001.72 213H1004.29V206.587C1004.29 205.202 1005.33 204.222 1006.74 204.222C1007.18 204.222 1007.72 204.3 1007.94 204.371V202.006C1007.7 201.963 1007.3 201.935 1007.01 201.935C1005.76 201.935 1004.72 202.645 1004.32 203.909H1004.21V202.091H1001.72V213ZM1013.24 213.192C1015.12 213.192 1015.96 212.077 1016.37 211.281H1016.53V213H1019.05V198.455H1016.48V203.895H1016.37C1015.98 203.107 1015.18 201.949 1013.25 201.949C1010.73 201.949 1008.75 203.923 1008.75 207.56C1008.75 211.153 1010.67 213.192 1013.24 213.192ZM1013.96 211.082C1012.26 211.082 1011.37 209.591 1011.37 207.545C1011.37 205.514 1012.25 204.058 1013.96 204.058C1015.62 204.058 1016.53 205.429 1016.53 207.545C1016.53 209.662 1015.6 211.082 1013.96 211.082ZM1030.42 204.974C1030.06 203.128 1028.58 201.949 1026.03 201.949C1023.4 201.949 1021.61 203.241 1021.62 205.259C1021.61 206.849 1022.59 207.901 1024.68 208.334L1026.54 208.724C1027.55 208.945 1028.01 209.349 1028.01 209.967C1028.01 210.713 1027.21 211.274 1025.98 211.274C1024.8 211.274 1024.04 210.763 1023.82 209.783L1021.31 210.024C1021.63 212.027 1023.31 213.213 1025.99 213.213C1028.72 213.213 1030.64 211.8 1030.65 209.733C1030.64 208.178 1029.64 207.226 1027.58 206.778L1025.72 206.381C1024.61 206.132 1024.17 205.749 1024.18 205.116C1024.17 204.378 1024.99 203.866 1026.06 203.866C1027.25 203.866 1027.87 204.513 1028.07 205.23L1030.42 204.974ZM1040.91 213H1043.5L1046.42 202.794H1046.54L1049.45 213H1052.05L1056.15 198.455H1053.32L1050.7 209.151H1050.57L1047.77 198.455H1045.19L1042.39 209.143H1042.25L1039.63 198.455H1036.8L1040.91 213ZM1061.51 213.213C1064.71 213.213 1066.74 210.962 1066.74 207.588C1066.74 204.207 1064.71 201.949 1061.51 201.949C1058.32 201.949 1056.29 204.207 1056.29 207.588C1056.29 210.962 1058.32 213.213 1061.51 213.213ZM1061.53 211.153C1059.76 211.153 1058.89 209.577 1058.89 207.581C1058.89 205.585 1059.76 203.987 1061.53 203.987C1063.27 203.987 1064.13 205.585 1064.13 207.581C1064.13 209.577 1063.27 211.153 1061.53 211.153ZM1071.49 206.608C1071.49 205.031 1072.44 204.122 1073.8 204.122C1075.13 204.122 1075.92 204.996 1075.92 206.452V213H1078.5V206.054C1078.5 203.44 1077.01 201.949 1074.76 201.949C1073.13 201.949 1072 202.73 1071.51 203.945H1071.38V202.091H1068.92V213H1071.49V206.608Z" fill="#05000B"/>
<path d="M980.341 159.547C989.326 159.547 995.751 154.605 995.732 147.77C995.751 142.789 992.587 139.234 986.708 138.492V138.18C991.181 137.379 994.267 134.215 994.248 129.723C994.267 123.414 988.74 118.453 980.458 118.453C972.255 118.453 966.083 123.258 965.966 130.172H974.072C974.169 127.125 976.962 125.152 980.419 125.152C983.837 125.152 986.123 127.223 986.103 130.23C986.123 133.375 983.447 135.504 979.599 135.504H975.869V141.715H979.599C984.13 141.715 986.962 143.98 986.943 147.203C986.962 150.387 984.228 152.574 980.361 152.574C976.63 152.574 973.837 150.621 973.681 147.691H965.166C965.302 154.684 971.552 159.547 980.341 159.547ZM1017.49 159.879C1027.55 159.879 1033.63 152.223 1033.65 139.039C1033.67 125.953 1027.51 118.453 1017.49 118.453C1007.46 118.453 1001.36 125.934 1001.34 139.039C1001.3 152.184 1007.42 159.859 1017.49 159.879ZM1017.49 152.867C1012.9 152.867 1009.94 148.258 1009.96 139.039C1009.98 129.957 1012.92 125.387 1017.49 125.387C1022.05 125.387 1025.01 129.957 1025.01 139.039C1025.03 148.258 1022.06 152.867 1017.49 152.867ZM1051.63 152.906H1058.62V142.574H1068.95V135.582H1058.62V125.25H1051.63V135.582H1041.3V142.574H1051.63V152.906Z" fill="#1F37FF"/>
<defs>
<filter id="filter0_d_55_274" x="0.065918" y="0" width="311" height="421" filterUnits="userSpaceOnUse" color-interpolation-filters="sRGB">
<feFlood flood-opacity="0" result="BackgroundImageFix"/>
<feColorMatrix in="SourceAlpha" type="matrix" values="0 0 0 0 0 0 0 0 0 0 0 0 0 0 0 0 0 0 127 0" result="hardAlpha"/>
<feOffset dx="10" dy="15"/>
<feGaussianBlur stdDeviation="12.5"/>
<feColorMatrix type="matrix" values="0 0 0 0 0 0 0 0 0 0 0 0 0 0 0 0 0 0 0.04 0"/>
<feBlend mode="normal" in2="BackgroundImageFix" result="effect1_dropShadow_55_274"/>
<feBlend mode="normal" in="SourceGraphic" in2="effect1_dropShadow_55_274" result="shape"/>
</filter>
<filter id="filter1_d_55_274" x="291.066" y="0" width="311" height="421" filterUnits="userSpaceOnUse" color-interpolation-filters="sRGB">
<feFlood flood-opacity="0" result="BackgroundImageFix"/>
<feColorMatrix in="SourceAlpha" type="matrix" values="0 0 0 0 0 0 0 0 0 0 0 0 0 0 0 0 0 0 127 0" result="hardAlpha"/>
<feOffset dx="10" dy="15"/>
<feGaussianBlur stdDeviation="12.5"/>
<feColorMatrix type="matrix" values="0 0 0 0 0 0 0 0 0 0 0 0 0 0 0 0 0 0 0.04 0"/>
<feBlend mode="normal" in2="BackgroundImageFix" result="effect1_dropShadow_55_274"/>
<feBlend mode="normal" in="SourceGraphic" in2="effect1_dropShadow_55_274" result="shape"/>
</filter>
<filter id="filter2_d_55_274" x="582.066" y="0" width="311" height="421" filterUnits="userSpaceOnUse" color-interpolation-filters="sRGB">
<feFlood flood-opacity="0" result="BackgroundImageFix"/>
<feColorMatrix in="SourceAlpha" type="matrix" values="0 0 0 0 0 0 0 0 0 0 0 0 0 0 0 0 0 0 127 0" result="hardAlpha"/>
<feOffset dx="10" dy="15"/>
<feGaussianBlur stdDeviation="12.5"/>
<feColorMatrix type="matrix" values="0 0 0 0 0 0 0 0 0 0 0 0 0 0 0 0 0 0 0.04 0"/>
<feBlend mode="normal" in2="BackgroundImageFix" result="effect1_dropShadow_55_274"/>
<feBlend mode="normal" in="SourceGraphic" in2="effect1_dropShadow_55_274" result="shape"/>
</filter>
<filter id="filter3_d_55_274" x="873.066" y="0" width="311" height="421" filterUnits="userSpaceOnUse" color-interpolation-filters="sRGB">
<feFlood flood-opacity="0" result="BackgroundImageFix"/>
<feColorMatrix in="SourceAlpha" type="matrix" values="0 0 0 0 0 0 0 0 0 0 0 0 0 0 0 0 0 0 127 0" result="hardAlpha"/>
<feOffset dx="10" dy="15"/>
<feGaussianBlur stdDeviation="12.5"/>
<feColorMatrix type="matrix" values="0 0 0 0 0 0 0 0 0 0 0 0 0 0 0 0 0 0 0.04 0"/>
<feBlend mode="normal" in2="BackgroundImageFix" result="effect1_dropShadow_55_274"/>
<feBlend mode="normal" in="SourceGraphic" in2="effect1_dropShadow_55_274" result="shape"/>
</filter>
</defs>
</svg>
