<svg width="39" height="39" viewBox="0 0 39 39" fill="none" xmlns="http://www.w3.org/2000/svg">
<g clip-path="url(#clip0_55_165)">
<path d="M33.2347 22.2504C32.7994 16.5832 30.1608 13.0317 27.833 9.89776C25.6775 6.9964 23.8159 4.49092 23.8159 0.794976C23.8159 0.498101 23.6497 0.226757 23.386 0.0907141C23.1216 -0.0461453 22.8039 -0.0237313 22.5635 0.15098C19.0675 2.6526 16.1505 6.86889 15.1316 10.8918C14.4242 13.6926 14.3306 16.8413 14.3175 18.9208C11.089 18.2313 10.3576 13.402 10.3499 13.3494C10.3135 13.0989 10.1605 12.8809 9.93783 12.7619C9.71287 12.6444 9.44843 12.6358 9.22036 12.7487C9.05106 12.8307 5.06485 14.8561 4.83291 22.943C4.81666 23.2121 4.81592 23.4819 4.81592 23.7517C4.81592 31.6083 11.2088 38.0008 19.0659 38.0008C19.0768 38.0015 19.0883 38.0031 19.0976 38.0008C19.1007 38.0008 19.1038 38.0008 19.1076 38.0008C26.9455 37.9783 33.3159 31.5944 33.3159 23.7517C33.3159 23.3567 33.2347 22.2504 33.2347 22.2504ZM19.0659 36.4175C16.4466 36.4175 14.3159 34.1478 14.3159 31.3579C14.3159 31.2628 14.3152 31.1669 14.3221 31.0494C14.3538 29.8728 14.5772 29.0696 14.8223 28.5354C15.2816 29.5219 16.1026 30.4287 17.4362 30.4287C17.8738 30.4287 18.2279 30.0746 18.2279 29.6371C18.2279 28.51 18.2511 27.2097 18.5318 26.0361C18.7815 24.9956 19.3783 23.8885 20.1344 23.0011C20.4707 24.153 21.1264 25.0852 21.7665 25.9951C22.6827 27.2969 23.6297 28.6429 23.796 30.9381C23.806 31.0741 23.8161 31.211 23.8161 31.3579C23.8159 34.1478 21.6852 36.4175 19.0659 36.4175Z" fill="white"/>
</g>
<defs>
<clipPath id="clip0_55_165">
<rect width="38" height="38" fill="white" transform="translate(0.065918 0.00195312)"/>
</clipPath>
</defs>
</svg>
